<svg width="24" height="24" viewBox="0 0 24 24" fill="none" xmlns="http://www.w3.org/2000/svg">
<path d="M20 19.4111V6.8C20 5.11984 20 4.27976 19.673 3.63803C19.3854 3.07354 18.9265 2.6146 18.362 2.32698C17.7202 2 16.8802 2 15.2 2H8.8C7.11984 2 6.27976 2 5.63803 2.32698C5.07354 2.6146 4.6146 3.07354 4.32698 3.63803C4 4.27976 4 5.11984 4 6.8V19.4111C4 20.2684 4 20.697 4.18054 20.9551C4.33819 21.1805 4.58173 21.331 4.85384 21.3712C5.16546 21.4173 5.54882 21.2256 6.31552 20.8422L6.31554 20.8422L10.5689 18.7155L10.569 18.7155C11.0937 18.4532 11.356 18.322 11.6312 18.2704C11.8749 18.2246 12.1251 18.2246 12.3688 18.2704C12.644 18.322 12.9064 18.4532 13.4311 18.7155L17.6845 20.8422L17.6845 20.8422C18.4512 21.2256 18.8345 21.4173 19.1462 21.3712C19.4183 21.331 19.6618 21.1805 19.8195 20.9551C20 20.697 20 20.2684 20 19.4111Z" fill="#363853"/>
</svg>
